<svg width="216" height="233" viewBox="0 0 216 233" fill="none" xmlns="http://www.w3.org/2000/svg">
<g filter="url(#filter0_d_576_4)">
<path d="M72.1258 141.932C72.34 141.106 73.209 139.453 74.9716 139.453L74.4208 128.437C74.0842 128.774 73.3192 129.245 72.952 128.437C72.5848 127.63 72.799 126.571 72.952 126.142C72.5236 126.142 71.9238 125.849 72.952 124.674C74.2372 123.205 74.6962 122.195 76.8994 122.287C75.0634 120.757 71.3914 117.036 71.3914 114.392C70.0144 113.933 67.9581 112.483 70.7488 110.353C72.2788 110.567 74.6411 111.62 71.8504 114.117C72.0646 115.341 73.3376 118.431 76.7158 121.002C76.8994 120.573 77.3951 119.661 77.9092 119.441C77.7868 118.89 77.7623 117.715 78.6436 117.421C78.8272 116.626 79.7636 115.365 82.0402 116.687L81.8566 106.497C81.4282 106.65 80.4612 106.828 80.0206 106.314C79.7758 106.252 79.5616 105.744 80.6632 104.202C80.8774 102.948 82.0402 100.457 84.9778 100.53C84.1516 99.1532 83.4172 96.1973 87.0892 95.3894C88.558 95.6648 91.0733 97.0418 89.3842 100.347L93.148 100.255C92.8726 99.092 92.5605 96.7297 93.5152 96.5828C94.0717 96.4972 94.3226 96.5114 94.4168 96.5563C94.3595 96.2256 94.1804 95.7029 93.7906 95.573C93.6988 94.8386 93.5703 93.278 93.7906 92.9108C94.0109 92.5436 94.3108 92.3906 94.4332 92.36L94.3414 91.5338C94.0966 91.3502 93.6254 90.7627 93.6988 89.8814C93.7722 89.0001 93.7906 88.5962 93.7906 88.5044C93.8212 88.3208 93.9559 87.9352 94.2496 87.8618V87.4028C94.066 87.2498 93.6988 86.8704 93.6988 86.5766C93.6988 86.2094 93.3316 84.2816 94.2496 83.9144C94.219 83.6084 94.1945 82.978 94.3414 82.9046C94.4883 82.8312 95.3206 82.7516 95.7184 82.721V82.262C95.29 81.5276 94.6352 79.5631 95.443 77.5802C95.596 77.2742 95.902 76.5888 95.902 76.295C95.9632 76.7846 96.1407 77.8189 96.361 78.0392C96.6364 78.3146 96.9118 81.4358 96.1774 82.1702V82.6292L97.6462 82.721C98.044 83.1494 98.5642 84.2632 97.4626 85.2914V85.8422C97.7992 85.781 98.4173 86.191 98.197 88.3208C98.1358 88.535 97.9767 88.9818 97.8298 89.0552V90.3404C98.0746 90.4016 98.5091 91.0014 98.2888 92.9108C98.2582 93.1862 98.1236 93.7737 97.8298 93.9206V94.196C98.4418 94.043 99.4271 94.4714 98.4724 97.409C98.3194 98.1128 98.0685 99.5571 98.2888 99.704C98.3194 99.857 98.3439 100.181 98.197 100.255H99.4822C99.2068 99.1838 98.8396 96.8949 99.574 96.3074H100.217V95.0222C99.9718 94.8386 99.4822 94.3796 99.4822 94.0124C99.3292 92.7884 99.3353 90.3404 100.584 90.3404C100.523 90.0956 100.308 89.5693 99.9412 89.4224C99.574 89.2755 99.6046 87.5252 99.6658 86.6684C99.6964 86.5154 99.9779 86.0992 100.859 85.6586C100.829 85.475 100.712 85.0894 100.492 85.016C100.217 84.9242 99.4822 83.3636 100.584 82.4456C100.553 82.3538 100.859 82.1518 102.328 82.0784V81.2522C101.655 80.3036 100.712 77.5251 102.328 74C102.42 74.5508 102.64 75.6891 102.787 75.836C103.246 76.8764 103.87 79.4346 102.695 81.344V81.9866H103.98C104.133 81.9254 104.384 82.1886 104.164 83.7308C104.898 84.1286 105.927 85.4199 104.164 87.4028L104.348 88.4126C104.96 88.6268 105.908 89.7529 104.807 92.5436V94.3796C105.327 94.4714 106.202 95.4261 105.541 98.5106L105.357 100.347C109.641 100.071 118.724 99.8876 120.78 101.356C123.35 103.192 123.442 103.651 123.626 107.323C123.595 107.599 123.203 108.039 121.881 107.599L121.698 114.759C122.218 114.331 123.626 113.768 125.094 114.943C125.003 115.188 125.021 115.622 125.829 115.402C126.655 115.647 127.812 116.852 125.829 119.716C126.135 120.084 126.655 121.057 126.288 122.011C127.695 121.858 130.639 122.636 131.153 126.969C131.214 127.397 131.117 128.217 130.235 128.07C130.052 127.978 129.574 127.593 129.134 126.785C129.072 127.734 128.84 129.686 128.399 129.906C128.246 132.568 128.142 138.223 128.95 139.545C129.684 139.668 131.263 140.261 131.704 141.657C133.142 142.024 136.037 143.052 136.11 144.227C136.202 145.696 136.11 145.788 133.448 146.889C130.786 147.991 119.403 149.092 118.76 148.909C118.118 148.725 83.6926 150.837 71.3914 146.889C70.045 146.461 67.4991 145.329 68.0866 144.227C68.668 143.462 70.2898 141.932 72.1258 141.932Z" fill="#29A298"/>
<path d="M87.8289 96.5828C88.4409 96.9806 89.4446 98.1251 88.5633 99.5204C87.682 100.916 87.7065 98.1434 87.8289 96.5828Z" fill="white"/>
<path d="M71.0295 112.923C70.7541 112.74 70.3685 112.17 71.0295 111.363C71.3967 111.546 71.9108 112.115 71.0295 112.923Z" fill="white"/>
<path d="M126.472 122.746C110.755 126.785 86.6303 124.429 76.5323 122.746C75.9815 122.654 75.6143 122.011 73.5029 124.031C71.8138 125.647 72.3707 126.112 72.8603 126.142C72.4197 129.594 73.6559 129.111 74.3291 128.437L74.5127 127.244C74.9533 128.86 76.4711 129.814 77.1749 130.09C80.5531 129.355 81.9485 130.029 82.2239 130.457C82.4442 132.22 83.1113 132.844 83.4173 132.936C86.208 134.111 86.7221 132.752 86.6303 131.926C86.41 128.768 87.3341 127.489 87.8237 127.244C87.8237 127.905 88.2521 128.682 88.4663 128.988C88.7417 129.355 91.1285 130.457 92.6891 128.437C93.9376 126.822 94.7393 127.397 94.9841 127.887C95.4982 131.706 98.2583 132.171 99.5741 131.926C100.235 132.293 99.9719 135.445 99.7577 136.975C99.6108 138.37 101.41 138.474 102.328 138.352C104.384 138.352 104.47 136.577 104.256 135.69C103.889 132.825 104.531 131.559 104.899 131.283C106.367 131.283 107.041 130.182 107.194 129.631C107.487 127.575 108.418 126.632 108.846 126.418C110.094 126.051 110.529 126.938 110.59 127.428C110.59 128.456 112.059 128.59 112.793 128.529C113.381 129.411 113.467 131.161 113.436 131.926C112.922 134.496 113.528 135.628 113.895 135.873C116.245 136.828 116.588 135.292 116.465 134.404C115.657 130.953 116.251 129.784 116.649 129.631C117.09 130.732 118.179 131.926 118.669 132.385C119.036 133.211 123.442 134.221 123.718 131.283C123.993 128.346 124.636 125.592 124.727 126.418C124.801 127.079 126.288 127.917 127.022 128.254C127.683 128.548 128.767 127.458 129.226 126.877C130.18 128.713 130.909 128.009 131.153 127.428C130.933 123.021 127.94 121.981 126.472 122.011C126.839 122.452 126.625 122.685 126.472 122.746Z" fill="white"/>
<path d="M83.2337 103.743C82.9399 106.093 82.2545 106.497 81.9485 106.405C80.2961 107.048 80.6633 106.405 79.9289 106.314C79.3414 106.24 80.1737 104.753 80.6633 104.019C81.2508 101.301 83.5397 100.622 84.6107 100.622L85.5287 100.897C90.0085 102.219 110.774 101.693 120.596 101.265C123.534 102.293 123.901 105.793 123.718 107.415L122.616 107.782C122.253 107.964 122.072 107.659 122.003 107.392C121.885 108.057 119.613 109.742 118.944 107.232C118.356 105.028 117.536 103.498 117.2 103.009C116.759 103.523 116.833 105.426 116.924 106.314C116.998 111.381 115.67 112.281 114.997 112.097C112.334 112.189 112.334 109.159 112.334 109.343C112.334 109.49 111.6 109.71 111.233 109.802C108.938 109.618 108.57 105.396 108.203 105.396C107.91 105.396 107.53 105.64 107.377 105.763C104.733 107.966 104.439 111.76 104.623 113.382C104.623 116.136 104.807 117.697 103.246 117.88C101.998 118.027 101.869 116.167 101.961 115.218C102.622 110.885 101.93 109.924 101.502 109.986C98.4725 108.884 98.8397 108.333 98.1053 107.782C97.5178 107.342 96.9425 105.334 96.7283 104.386C96.5753 104.233 95.9939 104.294 94.8923 105.763C93.7907 107.232 92.6585 107.048 92.2301 106.773C92.0098 107.507 92.1383 110.139 92.2301 111.363C92.5973 115.182 91.2203 115.891 90.4859 115.769C89.3843 115.402 89.2925 114.331 89.3843 113.841C89.678 111.711 89.1395 108.67 88.8335 107.415C88.0991 106.901 87.3035 106.834 86.9975 106.864C83.9864 106.791 83.2337 104.753 83.2337 103.743Z" fill="white"/>
<path d="M131.617 142.116C109.071 147.477 82.5043 144.349 72.0391 142.116L69.9277 142.942C102.315 149.037 125.956 144.931 133.729 142.116H131.617Z" fill="white"/>
</g>
<path d="M102.333 76.4786C101.599 77.7271 102.027 79.508 102.333 80.2424C102.67 79.8752 103.233 78.9572 102.792 78.2228C102.352 77.4884 102.303 76.754 102.333 76.4786Z" fill="white"/>
<path d="M95.7577 79.0949C95.3635 79.7648 95.5934 80.7204 95.7577 81.1145C95.9383 80.9175 96.2405 80.4249 96.004 80.0308C95.7675 79.6368 95.7412 79.2427 95.7577 79.0949Z" fill="white"/>
<defs>
<filter id="filter0_d_576_4" x="-11.6" y="-1.6" width="227.332" height="234.511" filterUnits="userSpaceOnUse" color-interpolation-filters="sRGB">
<feFlood flood-opacity="0" result="BackgroundImageFix"/>
<feColorMatrix in="SourceAlpha" type="matrix" values="0 0 0 0 0 0 0 0 0 0 0 0 0 0 0 0 0 0 127 0" result="hardAlpha"/>
<feOffset dy="4"/>
<feGaussianBlur stdDeviation="39.8"/>
<feComposite in2="hardAlpha" operator="out"/>
<feColorMatrix type="matrix" values="0 0 0 0 0.270528 0 0 0 0 0.746338 0 0 0 0 0.706687 0 0 0 0.15 0"/>
<feBlend mode="normal" in2="BackgroundImageFix" result="effect1_dropShadow_576_4"/>
<feBlend mode="normal" in="SourceGraphic" in2="effect1_dropShadow_576_4" result="shape"/>
</filter>
</defs>
</svg>
